<?xml version="1.0" standalone="no"?>
<!DOCTYPE svg PUBLIC "-//W3C//DTD SVG 20010904//EN"
 "http://www.w3.org/TR/2001/REC-SVG-20010904/DTD/svg10.dtd">
<svg version="1.0" xmlns="http://www.w3.org/2000/svg"
 width="205.000000pt" height="193.000000pt" viewBox="0 0 205.000000 193.000000"
 preserveAspectRatio="xMidYMid meet">
<metadata>
Created by potrace 1.15, written by Peter Selinger 2001-2017
</metadata>
<g transform="translate(0.000000,193.000000) scale(0.100000,-0.100000)"
fill="#000000" stroke="none">
<path d="M972 1499 c-142 -18 -271 -111 -330 -237 l-28 -59 -25 18 c-14 10
-59 27 -100 38 -41 12 -93 34 -116 50 -49 35 -51 32 -60 -71 l-6 -67 -74 -16
c-44 -10 -90 -14 -110 -10 l-35 6 7 -33 c4 -18 21 -70 37 -116 35 -96 92 -163
175 -203 61 -30 179 -34 232 -6 44 22 51 22 51 -6 0 -20 -9 -26 -57 -41 -65
-20 -178 -83 -207 -115 -19 -21 -24 -38 -25 -95 l-1 -29 -25 23 -25 24 -34
-33 c-18 -18 -39 -43 -46 -56 -12 -22 -9 -29 26 -75 21 -27 41 -50 44 -50 3 0
31 23 64 50 79 68 105 80 173 80 67 1 183 21 231 41 31 13 35 12 50 -6 23 -28
112 -88 119 -81 3 3 0 13 -8 22 -8 10 18 -4 58 -29 39 -25 94 -57 121 -71 l50
-26 58 26 c31 14 76 38 100 55 53 36 72 38 50 4 -9 -14 -23 -37 -32 -53 l-16
-27 28 30 c16 17 38 42 50 57 12 16 50 38 96 55 l75 30 42 -30 c30 -20 61 -32
102 -36 63 -8 95 -29 130 -86 12 -19 19 -24 19 -14 0 9 -20 39 -44 66 -24 27
-51 65 -59 84 -8 20 -29 52 -47 72 l-32 37 35 40 c48 52 74 105 93 186 23 100
13 135 -55 203 -39 40 -74 91 -116 170 -126 237 -182 284 -363 307 -119 15
-148 15 -240 3z m232 -15 c11 -4 4 -14 -28 -39 -69 -52 -78 -55 -198 -55 -111
0 -216 -18 -245 -42 -9 -7 -13 -7 -13 1 0 6 27 31 60 55 53 39 109 64 175 79
31 7 231 8 249 1z m227 -104 c31 -33 75 -96 97 -139 23 -44 58 -105 77 -136
l36 -56 -75 2 c-42 1 -76 4 -76 6 0 2 5 11 11 21 19 30 1 107 -44 194 -51 98
-87 129 -134 116 -27 -7 -34 -16 -44 -51 -23 -87 9 -220 64 -259 29 -21 30
-21 43 -3 8 10 13 30 13 44 -1 25 -2 25 -8 -3 -16 -74 -60 -21 -56 67 2 32 6
61 8 64 10 9 27 -8 42 -40 11 -23 13 -25 8 -7 -6 27 -52 100 -62 100 -3 0 -15
7 -25 15 -18 13 -18 16 -2 40 37 57 92 18 152 -110 63 -134 55 -188 -29 -188
-25 0 -44 -3 -42 -7 2 -4 -49 -15 -113 -24 -64 -10 -155 -24 -202 -32 -47 -7
-95 -13 -108 -14 -42 0 -18 23 38 37 30 7 56 16 59 19 14 13 -38 41 -102 54
-66 14 -73 18 -89 50 -33 68 -16 184 32 210 12 6 65 15 118 19 106 8 129 17
182 66 45 42 63 46 125 24 36 -13 66 -35 106 -79z m-962 -130 c29 0 61 -30 61
-57 0 -24 -2 -25 -37 -19 -21 3 -66 6 -100 6 l-63 0 0 43 c0 23 3 52 6 63 6
22 6 22 61 -7 30 -16 63 -29 72 -29z m-23 -112 c18 -13 38 -33 43 -46 26 -56
0 -212 -36 -212 -26 0 -69 28 -111 74 -41 44 -58 43 -26 -2 8 -12 14 -35 12
-50 -3 -23 -8 -27 -41 -30 -69 -6 -103 35 -153 182 -13 38 -24 70 -24 70 0 1
19 2 43 2 23 1 71 9 107 17 96 23 148 21 186 -5z m1256 -148 l41 -40 -5 -74
c-7 -104 -48 -189 -133 -272 -70 -69 -122 -99 -230 -135 -61 -20 -88 -23 -220
-21 -115 0 -168 5 -227 21 -166 43 -301 174 -315 305 -5 47 1 52 138 111 131
57 604 142 798 144 l113 1 40 -40z"/>
<path d="M943 265 c-103 -18 -167 -59 -246 -157 -27 -32 -34 -48 -26 -54 7 -4
20 4 32 22 36 51 106 113 154 138 65 32 257 55 304 36 l31 -13 -6 -66 c-4 -36
-9 -87 -12 -113 -4 -29 -2 -48 4 -48 5 0 13 30 16 68 13 138 14 141 57 162 34
18 46 19 106 10 37 -5 79 -12 93 -15 l25 -6 -25 12 c-14 6 -59 17 -100 24 -65
12 -79 12 -107 -2 -29 -14 -37 -13 -80 1 -55 19 -121 19 -220 1z"/>
</g>
</svg>
